<svg xmlns="http://www.w3.org/2000/svg" viewBox="0 0 512 512" width="100%" height="100%">
  <defs>
    <linearGradient id="badgeBg" x1="0%" y1="0%" x2="100%" y2="100%">
      <stop offset="0%" stop-color="#171d33"/>
      <stop offset="100%" stop-color="#080b14"/>
    </linearGradient>
    <linearGradient id="glassTile" x1="0%" y1="0%" x2="100%" y2="100%">
      <stop offset="0%" stop-color="rgba(255, 255, 255, 0.09)"/>
      <stop offset="100%" stop-color="rgba(255, 255, 255, 0.02)"/>
    </linearGradient>
    <linearGradient id="waterNeon" x1="0%" y1="0%" x2="100%" y2="100%">
      <stop offset="0%" stop-color="#38bdf8"/>
      <stop offset="100%" stop-color="#0284c7"/>
    </linearGradient>
    <linearGradient id="powerNeon" x1="0%" y1="0%" x2="100%" y2="100%">
      <stop offset="0%" stop-color="#fbbf24"/>
      <stop offset="100%" stop-color="#d97706"/>
    </linearGradient>
    <linearGradient id="civicNeon" x1="0%" y1="0%" x2="100%" y2="100%">
      <stop offset="0%" stop-color="#34d399"/>
      <stop offset="100%" stop-color="#059669"/>
    </linearGradient>
    <linearGradient id="transitNeon" x1="0%" y1="0%" x2="100%" y2="100%">
      <stop offset="0%" stop-color="#c084fc"/>
      <stop offset="100%" stop-color="#7c3aed"/>
    </linearGradient>
  </defs>

  <rect x="16" y="16" width="480" height="480" rx="108" fill="url(#badgeBg)" stroke="rgba(255, 255, 255, 0.14)" stroke-width="5"/>

  <!-- Tiles & Line-Art Icons -->
  <rect x="76" y="76" width="164" height="164" rx="36" fill="url(#glassTile)" stroke="rgba(56, 189, 248, 0.3)" stroke-width="2.5"/>
  <path d="M158 116 C158 116, 122 162, 122 184 C122 203.8 138.1 220 158 220 C177.9 220 194 203.8 194 184 C194 162, 158 116, 158 116 Z" fill="none" stroke="url(#waterNeon)" stroke-width="9"/>

  <rect x="272" y="76" width="164" height="164" rx="36" fill="url(#glassTile)" stroke="rgba(251, 191, 36, 0.3)" stroke-width="2.5"/>
  <path d="M364 110 L314 174 H354 L324 230 L394 158 H354 Z" fill="none" stroke="url(#powerNeon)" stroke-width="9"/>

  <rect x="76" y="272" width="164" height="164" rx="36" fill="url(#glassTile)" stroke="rgba(52, 211, 153, 0.3)" stroke-width="2.5"/>
  <path d="M108 400 V340 C108 315, 128 296, 158 296 C188 296, 208 315, 208 340 V400" fill="none" stroke="url(#civicNeon)" stroke-width="9"/>

  <rect x="272" y="272" width="164" height="164" rx="36" fill="url(#glassTile)" stroke="rgba(192, 132, 252, 0.3)" stroke-width="2.5"/>
  <rect x="312" y="310" width="84" height="78" rx="20" fill="none" stroke="url(#transitNeon)" stroke-width="9"/>

  <polygon points="256,236 276,256 256,276 236,256" fill="#171d33" stroke="rgba(255, 255, 255, 0.4)" stroke-width="3"/>
</svg>
